<svg xmlns="http://www.w3.org/2000/svg" version="1.1" xmlns:xlink="http://www.w3.org/1999/xlink" xmlns:svgjs="http://svgjs.dev/svgjs" width="1000" height="1125" viewBox="0 0 1000 1125"><g transform="matrix(1,0,0,1,0,0)"><svg viewBox="0 0 320 360" data-background-color="#ffffff" preserveAspectRatio="xMidYMid meet" height="1125" width="1000" xmlns="http://www.w3.org/2000/svg" xmlns:xlink="http://www.w3.org/1999/xlink"><g id="tight-bounds" transform="matrix(1,0,0,1,0,0)"><svg viewBox="0 0 320 360" height="360" width="320"><g><svg></svg></g><g><svg viewBox="0 0 320 360" height="360" width="320"><g><path d="M160 42.18c72.417 0 131.943 56.114 137.63 127.014h22.37c-1.137-17.82-5.308-34.882-12.133-51.185-7.962-18.957-19.716-36.398-34.502-50.805-14.787-14.787-31.848-26.161-50.806-34.503-20.095-8.341-40.948-12.891-62.559-12.891-21.611 0-42.464 4.171-62.559 12.512-18.957 7.962-36.398 19.716-50.806 34.503-14.787 14.787-26.161 31.848-34.502 50.805-6.825 16.303-10.995 33.744-12.133 51.185h22.37c5.687-70.521 65.213-126.635 137.63-126.635zM160 318.199c-72.417 0-131.943-56.114-137.63-127.014h-22.37c1.137 17.82 5.308 34.882 12.133 51.185 7.962 18.957 19.716 36.398 34.502 50.805 14.787 14.787 31.848 26.161 50.806 34.503 19.716 8.341 40.569 12.512 62.559 12.512 21.991 0 42.464-4.171 62.559-12.512 18.957-7.962 36.398-19.716 50.806-34.503 14.787-14.787 26.161-31.848 34.502-50.805 6.825-16.303 10.995-33.744 12.133-51.185h-22.37c-5.687 70.9-65.213 127.014-137.63 127.014z" fill="#ffffff" fill-rule="nonzero" stroke="none" stroke-width="1" stroke-linecap="butt" stroke-linejoin="miter" stroke-miterlimit="10" stroke-dasharray="" stroke-dashoffset="0" font-family="none" font-weight="none" font-size="none" text-anchor="none" style="mix-blend-mode: normal" data-fill-palette-color="tertiary"></path></g><g transform="matrix(1,0,0,1,56,146.6829268292683)"><svg viewBox="0 0 208 66.63414634146343" height="66.63414634146343" width="208"><g><svg viewBox="0 0 208 66.63414634146343" height="66.63414634146343" width="208"><g><svg viewBox="0 0 208 66.63414634146343" height="66.63414634146343" width="208"><g><svg viewBox="0 0 208 66.63414634146343" height="66.63414634146343" width="208"><g id="textblocktransform"><svg viewBox="0 0 208 66.63414634146343" height="66.63414634146343" width="208" id="textblock"><g><svg viewBox="0 0 208 66.63414634146343" height="66.63414634146343" width="208"><g transform="matrix(1,0,0,1,0,0)"><svg width="208" viewBox="-0.3 -33.95 106.6 34.150000000000006" height="66.63414634146343" data-palette-color="#8943d3"><path d="M18.7-33.6Q21.5-33.6 23.88-32.93 26.25-32.25 28.7-30.8L28.7-30.8 29.85-31.75Q31.05-32.7 31.83-33.05 32.6-33.4 33.6-33.4L33.6-33.4Q34.8-33.4 35.5-32.88 36.2-32.35 36.2-31.35L36.2-31.35Q36.2-30.95 36.05-30.5L36.05-30.5 33.95-23.6Q33.6-22.4 33.08-21.9 32.55-21.4 31.5-21.4L31.5-21.4Q30.4-21.4 29.58-22.08 28.75-22.75 27-24.85L27-24.85Q25.25-26.85 23.83-27.68 22.4-28.5 20.9-28.5L20.9-28.5Q19.8-28.5 19.05-27.78 18.3-27.05 18.3-26L18.3-26Q18.3-24.8 19.5-23.78 20.7-22.75 23.25-21.2L23.25-21.2Q25.85-19.65 27.55-18.4 29.25-17.15 30.45-15.3 31.65-13.45 31.65-11.05L31.65-11.05Q31.65-9.5 31.15-7.95L31.15-7.95Q29.95-3.95 26.5-1.88 23.05 0.2 18.45 0.2L18.45 0.2Q15 0.2 12.65-0.6 10.3-1.4 7.85-3.3L7.85-3.3 6.05-1.8Q4.8-0.75 4-0.38 3.2 0 2.2 0L2.2 0Q1.05 0 0.38-0.55-0.3-1.1-0.3-2.05L-0.3-2.05Q-0.3-2.55-0.1-3.1L-0.1-3.1 2.35-10.55Q2.75-11.85 3.45-12.4 4.15-12.95 5.25-12.95L5.25-12.95Q6.4-12.95 7.33-12.15 8.25-11.35 9.75-9.25L9.75-9.25Q11.35-6.95 12.73-6.05 14.1-5.15 16-5.15L16-5.15Q17.35-5.15 18.07-5.58 18.8-6 19.1-6.95L19.1-6.95Q19.2-7.2 19.2-7.7L19.2-7.7Q19.2-8.9 18.05-9.9 16.9-10.9 14.5-12.3L14.5-12.3Q11.95-13.85 10.35-15.08 8.75-16.3 7.58-18.15 6.4-20 6.4-22.5L6.4-22.5Q6.4-24.25 6.95-25.95L6.95-25.95Q8-29.4 11.25-31.5 14.5-33.6 18.7-33.6L18.7-33.6ZM67.9-22.9L63-5.9Q62.8-5.25 62.8-4.6L62.8-4.6Q62.8-4.05 62.95-3.68 63.1-3.3 63.27-3.08 63.45-2.85 63.5-2.75L63.5-2.75Q64-2.25 64-1.75L64-1.75Q64-1.65 63.9-1.25L63.9-1.25Q63.7-0.55 63.02-0.28 62.35 0 60.95 0L60.95 0 49.1 0Q48.05 0 47.47-0.35 46.9-0.7 46.9-1.3L46.9-1.3Q46.9-1.6 47.05-1.95L47.05-1.95Q47.2-2.35 47.47-2.58 47.75-2.8 48.25-3.1L48.25-3.1Q49.05-3.55 49.55-4.1 50.05-4.65 50.4-5.9L50.4-5.9 51.7-10.2 43.9-10.2 42.55-7.35Q41.7-5.5 41.7-4.45L41.7-4.45Q41.7-3.85 41.9-3.48 42.1-3.1 42.5-2.7L42.5-2.7Q42.85-2.3 42.97-2.02 43.1-1.75 43-1.3L43-1.3Q42.8-0.55 42.17-0.28 41.55 0 40.2 0L40.2 0 32.75 0Q31.6 0 31-0.43 30.4-0.85 30.4-1.55L30.4-1.55Q30.4-2.35 30.97-2.83 31.55-3.3 32.7-3.85L32.7-3.85Q34.2-4.6 35.1-5.33 36-6.05 36.65-7.35L36.65-7.35 45.55-25.8Q47.6-30.1 50.37-32.02 53.15-33.95 57.7-33.95L57.7-33.95Q62.8-33.95 65.6-31.88 68.4-29.8 68.4-26.1L68.4-26.1Q68.4-24.55 67.9-22.9L67.9-22.9ZM46.2-15.2L53.2-15.2 55.85-24Q56.05-24.6 56.05-25.25L56.05-25.25Q56.05-26.2 55.52-26.68 55-27.15 54.05-27.15L54.05-27.15Q52.85-27.15 52-26.45 51.15-25.75 50.3-23.95L50.3-23.95 46.2-15.2ZM95.19-33.3Q98.59-33.3 101.12-32.27 103.65-31.25 104.97-29.48 106.3-27.7 106.3-25.4L106.3-25.4Q106.3-24.1 105.94-23L105.94-23Q104.5-17.95 97.59-16.6L97.59-16.6Q100-15.9 101.4-14.28 102.8-12.65 102.8-10.25L102.8-10.25Q102.8-9.15 102.4-7.65L102.4-7.65Q101.3-3.75 97.97-1.88 94.64 0 88.55 0L88.55 0 67.75 0Q66.69 0 66.12-0.35 65.55-0.7 65.55-1.3L65.55-1.3Q65.55-1.6 65.69-1.95L65.69-1.95Q65.89-2.5 66.34-2.8 66.8-3.1 66.89-3.15L66.89-3.15Q67.69-3.65 68.19-4.17 68.69-4.7 69.05-5.9L69.05-5.9 75.14-27.45Q75.34-28.1 75.34-28.7L75.34-28.7Q75.34-29.25 75.17-29.63 75-30 74.69-30.5L74.69-30.5Q74.25-31.15 74.25-31.55L74.25-31.55Q74.25-31.7 74.34-32.1L74.34-32.1Q74.55-32.75 75.22-33.02 75.89-33.3 77.3-33.3L77.3-33.3 95.19-33.3ZM92.94-24.15Q93.3-25.25 93.3-26.2L93.3-26.2Q93.3-28.8 90.34-28.8L90.34-28.8 88.09-28.8 85.44-19.45 87.64-19.45Q89.75-19.45 90.97-20.48 92.19-21.5 92.94-24.15L92.94-24.15ZM89.3-9.45Q89.64-10.65 89.64-11.65L89.64-11.65Q89.64-14.35 86.55-14.35L86.55-14.35 84.05-14.35 81.19-4.5 83.75-4.5Q85.89-4.5 87.19-5.58 88.5-6.65 89.3-9.45L89.3-9.45Z" opacity="1" transform="matrix(1,0,0,1,0,0)" fill="#8943d3" class="undefined-text-0" data-fill-palette-color="primary" id="text-0"></path></svg></g></svg></g></svg></g></svg></g></svg></g></svg></g></svg></g></svg></g><defs></defs></svg><rect width="320" height="360" fill="none" stroke="none" visibility="hidden"></rect></g></svg></g></svg>